<svg width="77" height="77" viewBox="0 0 77 77" fill="none" xmlns="http://www.w3.org/2000/svg">
<path d="M69.9596 32.2168H67.3753V32.0837H38.5003V44.917H56.6322C53.9869 52.3876 46.8789 57.7503 38.5003 57.7503C27.8695 57.7503 19.2503 49.1311 19.2503 38.5003C19.2503 27.8695 27.8695 19.2503 38.5003 19.2503C43.4075 19.2503 47.8719 21.1015 51.2711 24.1254L60.3459 15.0506C54.6158 9.71035 46.9511 6.41699 38.5003 6.41699C20.7823 6.41699 6.41699 20.7823 6.41699 38.5003C6.41699 56.2183 20.7823 70.5837 38.5003 70.5837C56.2183 70.5837 70.5837 56.2183 70.5837 38.5003C70.5837 36.3491 70.3623 34.2493 69.9596 32.2168Z" fill="#FFC107"/>
<path d="M10.1162 23.5671L20.6572 31.2976C23.5094 24.2361 30.4169 19.2503 38.5003 19.2503C43.4075 19.2503 47.8719 21.1015 51.2711 24.1254L60.3459 15.0506C54.6158 9.71035 46.9511 6.41699 38.5003 6.41699C26.1771 6.41699 15.4902 13.3743 10.1162 23.5671Z" fill="#FF3D00"/>
<path d="M38.4997 70.583C46.7868 70.583 54.3168 67.4115 60.01 62.2541L50.0802 53.8515C46.7508 56.3835 42.6825 57.753 38.4997 57.7496C30.1548 57.7496 23.0692 52.4286 20.3999 45.0029L9.9375 53.0639C15.2473 63.4541 26.0305 70.583 38.4997 70.583Z" fill="#4CAF50"/>
<path d="M69.9593 32.2162H67.375V32.083H38.5V44.9163H56.6319C55.3665 48.4718 53.0873 51.5787 50.0757 53.8532L50.0805 53.8499L60.0103 62.2526C59.3076 62.891 70.5833 54.5413 70.5833 38.4997C70.5833 36.3485 70.362 34.2486 69.9593 32.2162Z" fill="#1976D2"/>
</svg>
