<svg width="59" height="59" viewBox="0 0 59 59" fill="none" xmlns="http://www.w3.org/2000/svg">
<path d="M49.0656 17.9675L36.7855 8.09091C32.5464 4.68324 26.3966 4.68324 22.1575 8.09091L9.87745 17.9675C7.11198 20.191 5.52539 23.5004 5.52539 27.0481V41.7696C5.52539 48.1967 10.7592 53.4274 17.1914 53.4274H23.9455V41.7696C23.9455 38.728 26.4236 36.2515 29.4715 36.2515C32.5194 36.2515 34.9975 38.728 34.9975 41.7696V53.4274H41.7516C48.1839 53.4274 53.4176 48.1992 53.4176 41.7696V27.0481C53.4176 23.5004 51.831 20.191 49.0656 17.9675ZM49.7336 41.7696C49.7336 46.1649 46.1527 49.7421 41.7516 49.7421H38.6816V41.7696C38.6816 36.6962 34.5505 32.5661 29.4715 32.5661C24.3925 32.5661 20.2615 36.6962 20.2615 41.7696V49.7421H17.1914C12.7903 49.7421 9.20941 46.1649 9.20941 41.7696V27.0481C9.20941 24.6231 10.2925 22.3604 12.1836 20.8396L24.4637 10.963C27.3667 8.63143 31.5763 8.63143 34.4768 10.963L46.7569 20.8396C48.648 22.3604 49.7311 24.6231 49.7311 27.0481V41.7696H49.7336Z" fill="#5C6A77"/>
</svg>
