<svg width="46" height="40" viewBox="0 0 46 40" fill="none" xmlns="http://www.w3.org/2000/svg">
<g filter="url(#filter0_dif_153_3667)">
<path d="M30.8586 1.38023C31.6538 0.793787 32.783 1.32772 32.5605 2.185L30.0575 11.8296C29.9574 12.2152 30.1452 12.5929 30.5268 12.7734L40.7473 17.6063C41.6445 18.0306 41.2507 19.2498 40.1869 19.3414L28.6752 20.3324C28.1805 20.3749 27.755 20.7019 27.6455 21.1237L25.2115 30.5026C24.9837 31.3802 23.6089 31.5985 23.1878 30.8238L18.2734 21.7834C18.0983 21.4613 17.7075 21.2765 17.2793 21.3134L5.26303 22.3478C4.23336 22.4364 3.77672 21.3521 4.59086 20.7517L13.2908 14.3358C13.682 14.0473 13.815 13.582 13.6127 13.2097L8.9047 4.549C8.46963 3.74865 9.56193 2.85969 10.4591 3.28396L20.6796 8.11689C21.0612 8.29734 21.5544 8.24172 21.9122 7.97788L30.8586 1.38023Z" fill="url(#paint0_linear_153_3667)"/>
</g>
<defs>
<filter id="filter0_dif_153_3667" x="0.173828" y="0.133301" width="45.0703" height="39.166" filterUnits="userSpaceOnUse" color-interpolation-filters="sRGB">
<feFlood flood-opacity="0" result="BackgroundImageFix"/>
<feColorMatrix in="SourceAlpha" type="matrix" values="0 0 0 0 0 0 0 0 0 0 0 0 0 0 0 0 0 0 127 0" result="hardAlpha"/>
<feOffset dy="4"/>
<feGaussianBlur stdDeviation="2"/>
<feComposite in2="hardAlpha" operator="out"/>
<feColorMatrix type="matrix" values="0 0 0 0 0 0 0 0 0 0 0 0 0 0 0 0 0 0 0.25 0"/>
<feBlend mode="normal" in2="BackgroundImageFix" result="effect1_dropShadow_153_3667"/>
<feBlend mode="normal" in="SourceGraphic" in2="effect1_dropShadow_153_3667" result="shape"/>
<feColorMatrix in="SourceAlpha" type="matrix" values="0 0 0 0 0 0 0 0 0 0 0 0 0 0 0 0 0 0 127 0" result="hardAlpha"/>
<feOffset dy="4"/>
<feGaussianBlur stdDeviation="3.35"/>
<feComposite in2="hardAlpha" operator="arithmetic" k2="-1" k3="1"/>
<feColorMatrix type="matrix" values="0 0 0 0 0 0 0 0 0 0 0 0 0 0 0 0 0 0 0.25 0"/>
<feBlend mode="normal" in2="shape" result="effect2_innerShadow_153_3667"/>
<feGaussianBlur stdDeviation="0.5" result="effect3_foregroundBlur_153_3667"/>
</filter>
<linearGradient id="paint0_linear_153_3667" x1="33.2216" y1="-0.362379" x2="17.103" y2="33.7244" gradientUnits="userSpaceOnUse">
<stop stop-color="#F0DF94"/>
<stop offset="1" stop-color="#EED8B8"/>
</linearGradient>
</defs>
</svg>
