<svg width="59" height="59" viewBox="0 0 59 59" fill="none" xmlns="http://www.w3.org/2000/svg">
<path d="M17.8055 24.5605C17.8055 23.5437 18.6307 22.7185 19.6475 22.7185H39.2956C40.3123 22.7185 41.1376 23.5437 41.1376 24.5605C41.1376 25.5773 40.3123 26.4025 39.2956 26.4025H19.6475C18.6307 26.4025 17.8055 25.5773 17.8055 24.5605ZM22.1035 19.0345H36.8395C37.8563 19.0345 38.6816 18.2093 38.6816 17.1925C38.6816 16.1757 37.8563 15.3505 36.8395 15.3505H22.1035C21.0867 15.3505 20.2615 16.1757 20.2615 17.1925C20.2615 18.2093 21.0867 19.0345 22.1035 19.0345ZM53.4176 33.1248V39.2966C53.4176 45.7289 48.1839 50.9626 41.7516 50.9626H17.1914C10.7592 50.9626 5.52539 45.7289 5.52539 39.2966V33.1248C5.52539 32.1325 5.68507 31.1525 5.99699 30.2118L10.7494 15.9597C12.3384 11.1901 16.7862 7.98242 21.8161 7.98242H37.1269C42.1568 7.98242 46.6022 11.1876 48.1937 15.9597L52.946 30.2118C53.2579 31.15 53.4176 32.1301 53.4176 33.1248ZM9.9216 30.0865H22.1035C23.1203 30.0865 23.9455 30.9118 23.9455 31.9285C23.9455 34.9764 26.4236 37.4546 29.4715 37.4546C32.5194 37.4546 34.9975 34.9764 34.9975 31.9285C34.9975 30.9118 35.8228 30.0865 36.8395 30.0865H49.0214L44.7012 17.1238C43.6132 13.8598 40.5702 11.6664 37.1293 11.6664H21.8185C18.3776 11.6664 15.3348 13.8598 14.2468 17.1238L9.9216 30.0865ZM49.7336 39.2966V33.7705H38.4973C37.6402 37.9679 33.9193 41.1386 29.4715 41.1386C25.0237 41.1386 21.3028 37.9679 20.4457 33.7705H9.20941V39.2966C9.20941 43.6977 12.7903 47.2786 17.1914 47.2786H41.7516C46.1527 47.2786 49.7336 43.6977 49.7336 39.2966Z" fill="#5C6A77"/>
</svg>
